<mxfile host="Electron" agent="Mozilla/5.0 (Windows NT 10.0; Win64; x64) AppleWebKit/537.36 (KHTML, like Gecko) draw.io/27.0.2 Chrome/134.0.6998.205 Electron/35.3.0 Safari/537.36" version="27.0.2">
  <diagram name="Page-1" id="2YBvvXClWsGukQMizWep">
    <mxGraphModel dx="1892" dy="1726" grid="1" gridSize="10" guides="1" tooltips="1" connect="1" arrows="1" fold="1" page="1" pageScale="1" pageWidth="850" pageHeight="1100" math="0" shadow="0">
      <root>
        <mxCell id="0" />
        <mxCell id="1" parent="0" />
        <mxCell id="_cyXRjGRUk6WVdYPU9he-4" value="" style="rounded=0;whiteSpace=wrap;html=1;" parent="1" vertex="1">
          <mxGeometry x="620" y="220" width="120" height="60" as="geometry" />
        </mxCell>
        <mxCell id="_cyXRjGRUk6WVdYPU9he-5" value="" style="rounded=0;whiteSpace=wrap;html=1;" parent="1" vertex="1">
          <mxGeometry x="90" y="220" width="120" height="60" as="geometry" />
        </mxCell>
        <mxCell id="_cyXRjGRUk6WVdYPU9he-6" value="User" style="text;html=1;align=center;verticalAlign=middle;whiteSpace=wrap;rounded=0;" parent="1" vertex="1">
          <mxGeometry x="120" y="235" width="60" height="30" as="geometry" />
        </mxCell>
        <mxCell id="_cyXRjGRUk6WVdYPU9he-7" value="System" style="text;html=1;align=center;verticalAlign=middle;whiteSpace=wrap;rounded=0;" parent="1" vertex="1">
          <mxGeometry x="650" y="235" width="60" height="30" as="geometry" />
        </mxCell>
        <mxCell id="_cyXRjGRUk6WVdYPU9he-10" value="&lt;span style=&quot;text-wrap-mode: nowrap;&quot;&gt;1.1.1: request to View testimonials&lt;/span&gt;" style="text;html=1;align=center;verticalAlign=middle;whiteSpace=wrap;rounded=0;" parent="1" vertex="1">
          <mxGeometry x="320" y="70" width="170" height="30" as="geometry" />
        </mxCell>
        <mxCell id="_cyXRjGRUk6WVdYPU9he-12" value="" style="endArrow=none;html=1;rounded=0;edgeStyle=orthogonalEdgeStyle;curved=1;exitX=0.75;exitY=0;exitDx=0;exitDy=0;entryX=0.25;entryY=0;entryDx=0;entryDy=0;" parent="1" source="_cyXRjGRUk6WVdYPU9he-5" target="_cyXRjGRUk6WVdYPU9he-4" edge="1">
          <mxGeometry width="50" height="50" relative="1" as="geometry">
            <mxPoint x="270" y="170" as="sourcePoint" />
            <mxPoint x="320" y="120" as="targetPoint" />
            <Array as="points">
              <mxPoint x="180" y="110" />
              <mxPoint x="650" y="110" />
            </Array>
          </mxGeometry>
        </mxCell>
        <mxCell id="_cyXRjGRUk6WVdYPU9he-13" value="" style="endArrow=none;html=1;rounded=0;edgeStyle=orthogonalEdgeStyle;curved=1;exitX=0.75;exitY=1;exitDx=0;exitDy=0;entryX=0.25;entryY=1;entryDx=0;entryDy=0;" parent="1" source="_cyXRjGRUk6WVdYPU9he-5" target="_cyXRjGRUk6WVdYPU9he-4" edge="1">
          <mxGeometry width="50" height="50" relative="1" as="geometry">
            <mxPoint x="90" y="420" as="sourcePoint" />
            <mxPoint x="560" y="420" as="targetPoint" />
            <Array as="points">
              <mxPoint x="180" y="380" />
              <mxPoint x="650" y="380" />
            </Array>
          </mxGeometry>
        </mxCell>
        <mxCell id="_cyXRjGRUk6WVdYPU9he-15" value="" style="endArrow=none;html=1;rounded=0;edgeStyle=orthogonalEdgeStyle;curved=1;exitX=0.75;exitY=0;exitDx=0;exitDy=0;entryX=1;entryY=0.25;entryDx=0;entryDy=0;" parent="1" source="_cyXRjGRUk6WVdYPU9he-4" target="_cyXRjGRUk6WVdYPU9he-4" edge="1">
          <mxGeometry width="50" height="50" relative="1" as="geometry">
            <mxPoint x="350" y="220" as="sourcePoint" />
            <mxPoint x="820" y="220" as="targetPoint" />
            <Array as="points">
              <mxPoint x="710" y="170" />
              <mxPoint x="800" y="170" />
              <mxPoint x="800" y="235" />
            </Array>
          </mxGeometry>
        </mxCell>
        <mxCell id="_cyXRjGRUk6WVdYPU9he-16" value="" style="endArrow=none;html=1;rounded=0;edgeStyle=orthogonalEdgeStyle;curved=1;exitX=1;exitY=0;exitDx=0;exitDy=0;entryX=0;entryY=0;entryDx=0;entryDy=0;" parent="1" source="_cyXRjGRUk6WVdYPU9he-5" target="_cyXRjGRUk6WVdYPU9he-4" edge="1">
          <mxGeometry width="50" height="50" relative="1" as="geometry">
            <mxPoint x="147.5" y="200" as="sourcePoint" />
            <mxPoint x="617.5" y="200" as="targetPoint" />
            <Array as="points">
              <mxPoint x="210" y="160" />
              <mxPoint x="620" y="160" />
            </Array>
          </mxGeometry>
        </mxCell>
        <mxCell id="_cyXRjGRUk6WVdYPU9he-17" value="" style="endArrow=classic;html=1;rounded=0;" parent="1" edge="1">
          <mxGeometry width="50" height="50" relative="1" as="geometry">
            <mxPoint x="374" y="101" as="sourcePoint" />
            <mxPoint x="425" y="100" as="targetPoint" />
          </mxGeometry>
        </mxCell>
        <mxCell id="_cyXRjGRUk6WVdYPU9he-18" value="" style="endArrow=classic;html=1;rounded=0;" parent="1" edge="1">
          <mxGeometry width="50" height="50" relative="1" as="geometry">
            <mxPoint x="430.5" y="410" as="sourcePoint" />
            <mxPoint x="379.5" y="411" as="targetPoint" />
          </mxGeometry>
        </mxCell>
        <mxCell id="_cyXRjGRUk6WVdYPU9he-19" value="&lt;span style=&quot;text-wrap-mode: nowrap;&quot;&gt;1.1.2: return all&amp;nbsp; testimonials&lt;/span&gt;" style="text;html=1;align=center;verticalAlign=middle;whiteSpace=wrap;rounded=0;" parent="1" vertex="1">
          <mxGeometry x="330" y="380" width="135" height="30" as="geometry" />
        </mxCell>
        <mxCell id="_cyXRjGRUk6WVdYPU9he-21" value="" style="endArrow=classic;html=1;rounded=0;" parent="1" edge="1">
          <mxGeometry width="50" height="50" relative="1" as="geometry">
            <mxPoint x="720" y="161" as="sourcePoint" />
            <mxPoint x="771" y="160" as="targetPoint" />
          </mxGeometry>
        </mxCell>
        <mxCell id="_cyXRjGRUk6WVdYPU9he-22" value="&lt;span style=&quot;text-wrap-mode: nowrap;&quot;&gt;1.1.3: bring all&amp;nbsp;&lt;/span&gt;&lt;div style=&quot;text-wrap-mode: nowrap;&quot;&gt;testimonials&lt;/div&gt;" style="text;html=1;align=center;verticalAlign=middle;whiteSpace=wrap;rounded=0;" parent="1" vertex="1">
          <mxGeometry x="710" y="120" width="80" height="30" as="geometry" />
        </mxCell>
        <mxCell id="_cyXRjGRUk6WVdYPU9he-23" value="" style="endArrow=classic;html=1;rounded=0;" parent="1" edge="1">
          <mxGeometry width="50" height="50" relative="1" as="geometry">
            <mxPoint x="372" y="151" as="sourcePoint" />
            <mxPoint x="423" y="150" as="targetPoint" />
          </mxGeometry>
        </mxCell>
        <mxCell id="_cyXRjGRUk6WVdYPU9he-24" value="&lt;span style=&quot;text-wrap-mode: nowrap;&quot;&gt;2.1.1: request to View sent requests&lt;/span&gt;" style="text;html=1;align=center;verticalAlign=middle;whiteSpace=wrap;rounded=0;" parent="1" vertex="1">
          <mxGeometry x="302.5" y="120" width="205" height="30" as="geometry" />
        </mxCell>
        <mxCell id="_cyXRjGRUk6WVdYPU9he-25" value="" style="endArrow=none;html=1;rounded=0;edgeStyle=orthogonalEdgeStyle;curved=1;exitX=1;exitY=1;exitDx=0;exitDy=0;entryX=0;entryY=1;entryDx=0;entryDy=0;" parent="1" source="_cyXRjGRUk6WVdYPU9he-5" target="_cyXRjGRUk6WVdYPU9he-4" edge="1">
          <mxGeometry width="50" height="50" relative="1" as="geometry">
            <mxPoint x="200" y="550" as="sourcePoint" />
            <mxPoint x="670" y="550" as="targetPoint" />
            <Array as="points">
              <mxPoint x="210" y="330" />
              <mxPoint x="620" y="330" />
            </Array>
          </mxGeometry>
        </mxCell>
        <mxCell id="_cyXRjGRUk6WVdYPU9he-26" value="" style="endArrow=classic;html=1;rounded=0;" parent="1" edge="1">
          <mxGeometry width="50" height="50" relative="1" as="geometry">
            <mxPoint x="430.5" y="360" as="sourcePoint" />
            <mxPoint x="379.5" y="361" as="targetPoint" />
          </mxGeometry>
        </mxCell>
        <mxCell id="_cyXRjGRUk6WVdYPU9he-27" value="&lt;span style=&quot;text-wrap-mode: nowrap;&quot;&gt;2.1.2: return all&amp;nbsp; sent requests&lt;/span&gt;" style="text;html=1;align=center;verticalAlign=middle;whiteSpace=wrap;rounded=0;" parent="1" vertex="1">
          <mxGeometry x="325" y="330" width="165" height="30" as="geometry" />
        </mxCell>
        <mxCell id="_cyXRjGRUk6WVdYPU9he-28" value="" style="endArrow=none;html=1;rounded=0;edgeStyle=orthogonalEdgeStyle;curved=1;exitX=1;exitY=0.5;exitDx=0;exitDy=0;entryX=1;entryY=0.75;entryDx=0;entryDy=0;" parent="1" source="_cyXRjGRUk6WVdYPU9he-4" target="_cyXRjGRUk6WVdYPU9he-4" edge="1">
          <mxGeometry width="50" height="50" relative="1" as="geometry">
            <mxPoint x="310" y="600" as="sourcePoint" />
            <mxPoint x="780" y="600" as="targetPoint" />
            <Array as="points">
              <mxPoint x="810" y="250" />
              <mxPoint x="810" y="290" />
              <mxPoint x="740" y="290" />
            </Array>
          </mxGeometry>
        </mxCell>
        <mxCell id="_cyXRjGRUk6WVdYPU9he-30" value="&lt;span style=&quot;text-wrap-mode: nowrap;&quot;&gt;2.1.3: bring list of&amp;nbsp;&lt;/span&gt;&lt;div style=&quot;text-wrap-mode: nowrap;&quot;&gt;requests info&lt;/div&gt;" style="text;html=1;align=center;verticalAlign=middle;whiteSpace=wrap;rounded=0;" parent="1" vertex="1">
          <mxGeometry x="750" y="295" width="80" height="30" as="geometry" />
        </mxCell>
        <mxCell id="_cyXRjGRUk6WVdYPU9he-31" value="" style="endArrow=classic;html=1;rounded=0;" parent="1" edge="1">
          <mxGeometry width="50" height="50" relative="1" as="geometry">
            <mxPoint x="759.5" y="330" as="sourcePoint" />
            <mxPoint x="800.5" y="330" as="targetPoint" />
          </mxGeometry>
        </mxCell>
        <mxCell id="_cyXRjGRUk6WVdYPU9he-33" value="" style="endArrow=none;html=1;rounded=0;edgeStyle=orthogonalEdgeStyle;curved=1;exitX=1;exitY=0.25;exitDx=0;exitDy=0;entryX=0;entryY=0.25;entryDx=0;entryDy=0;" parent="1" source="_cyXRjGRUk6WVdYPU9he-5" target="_cyXRjGRUk6WVdYPU9he-4" edge="1">
          <mxGeometry width="50" height="50" relative="1" as="geometry">
            <mxPoint x="310" y="600" as="sourcePoint" />
            <mxPoint x="780" y="600" as="targetPoint" />
            <Array as="points">
              <mxPoint x="440" y="235" />
              <mxPoint x="440" y="235" />
            </Array>
          </mxGeometry>
        </mxCell>
        <mxCell id="_cyXRjGRUk6WVdYPU9he-34" value="" style="endArrow=classic;html=1;rounded=0;" parent="1" edge="1">
          <mxGeometry width="50" height="50" relative="1" as="geometry">
            <mxPoint x="384" y="220" as="sourcePoint" />
            <mxPoint x="425" y="220" as="targetPoint" />
          </mxGeometry>
        </mxCell>
        <mxCell id="_cyXRjGRUk6WVdYPU9he-35" value="&lt;span style=&quot;text-wrap-mode: nowrap;&quot;&gt;2.2.1: request to view received gift request&lt;/span&gt;" style="text;html=1;align=center;verticalAlign=middle;whiteSpace=wrap;rounded=0;" parent="1" vertex="1">
          <mxGeometry x="300" y="190" width="235" height="30" as="geometry" />
        </mxCell>
        <mxCell id="_cyXRjGRUk6WVdYPU9he-36" value="" style="endArrow=none;html=1;rounded=0;edgeStyle=orthogonalEdgeStyle;curved=1;exitX=1;exitY=0.75;exitDx=0;exitDy=0;entryX=0;entryY=0.75;entryDx=0;entryDy=0;" parent="1" source="_cyXRjGRUk6WVdYPU9he-5" target="_cyXRjGRUk6WVdYPU9he-4" edge="1">
          <mxGeometry width="50" height="50" relative="1" as="geometry">
            <mxPoint x="220" y="245" as="sourcePoint" />
            <mxPoint x="630" y="245" as="targetPoint" />
            <Array as="points">
              <mxPoint x="420" y="265" />
              <mxPoint x="420" y="265" />
            </Array>
          </mxGeometry>
        </mxCell>
        <mxCell id="_cyXRjGRUk6WVdYPU9he-37" value="" style="endArrow=classic;html=1;rounded=0;" parent="1" edge="1">
          <mxGeometry width="50" height="50" relative="1" as="geometry">
            <mxPoint x="428" y="300" as="sourcePoint" />
            <mxPoint x="387" y="300" as="targetPoint" />
          </mxGeometry>
        </mxCell>
        <mxCell id="_cyXRjGRUk6WVdYPU9he-38" value="&lt;span style=&quot;text-wrap-mode: nowrap;&quot;&gt;2.2.2: return list of received request&lt;/span&gt;" style="text;html=1;align=center;verticalAlign=middle;whiteSpace=wrap;rounded=0;" parent="1" vertex="1">
          <mxGeometry x="317.5" y="265" width="175" height="30" as="geometry" />
        </mxCell>
        <mxCell id="_cyXRjGRUk6WVdYPU9he-40" value="" style="endArrow=none;html=1;rounded=0;edgeStyle=orthogonalEdgeStyle;curved=1;exitX=0.75;exitY=1;exitDx=0;exitDy=0;entryX=1;entryY=1;entryDx=0;entryDy=0;" parent="1" source="_cyXRjGRUk6WVdYPU9he-4" target="_cyXRjGRUk6WVdYPU9he-4" edge="1">
          <mxGeometry width="50" height="50" relative="1" as="geometry">
            <mxPoint x="310" y="600" as="sourcePoint" />
            <mxPoint x="780" y="600" as="targetPoint" />
            <Array as="points">
              <mxPoint x="700" y="280" />
              <mxPoint x="700" y="340" />
              <mxPoint x="740" y="340" />
            </Array>
          </mxGeometry>
        </mxCell>
        <mxCell id="_cyXRjGRUk6WVdYPU9he-41" value="" style="endArrow=classic;html=1;rounded=0;" parent="1" edge="1">
          <mxGeometry width="50" height="50" relative="1" as="geometry">
            <mxPoint x="690" y="400" as="sourcePoint" />
            <mxPoint x="731" y="400" as="targetPoint" />
          </mxGeometry>
        </mxCell>
        <mxCell id="_cyXRjGRUk6WVdYPU9he-42" value="&lt;span style=&quot;text-wrap-mode: nowrap;&quot;&gt;2.2.3: bring all request&amp;nbsp;&lt;/span&gt;&lt;div style=&quot;text-wrap-mode: nowrap;&quot;&gt;where user&lt;/div&gt;&lt;div style=&quot;text-wrap-mode: nowrap;&quot;&gt;&amp;nbsp;owns the gift&amp;nbsp;&amp;nbsp;&lt;/div&gt;" style="text;html=1;align=center;verticalAlign=middle;whiteSpace=wrap;rounded=0;" parent="1" vertex="1">
          <mxGeometry x="670" y="340" width="100" height="60" as="geometry" />
        </mxCell>
        <mxCell id="_cyXRjGRUk6WVdYPU9he-44" value="" style="rounded=0;whiteSpace=wrap;html=1;" parent="1" vertex="1">
          <mxGeometry x="90" y="510" width="120" height="60" as="geometry" />
        </mxCell>
        <mxCell id="_cyXRjGRUk6WVdYPU9he-45" value="System" style="text;html=1;align=center;verticalAlign=middle;whiteSpace=wrap;rounded=0;" parent="1" vertex="1">
          <mxGeometry x="120" y="525" width="60" height="30" as="geometry" />
        </mxCell>
        <mxCell id="_cyXRjGRUk6WVdYPU9he-46" value="" style="endArrow=none;html=1;rounded=0;edgeStyle=orthogonalEdgeStyle;curved=1;exitX=0.5;exitY=1;exitDx=0;exitDy=0;entryX=0.5;entryY=0;entryDx=0;entryDy=0;" parent="1" source="_cyXRjGRUk6WVdYPU9he-5" target="_cyXRjGRUk6WVdYPU9he-44" edge="1">
          <mxGeometry width="50" height="50" relative="1" as="geometry">
            <mxPoint x="300" y="760" as="sourcePoint" />
            <mxPoint x="770" y="760" as="targetPoint" />
            <Array as="points">
              <mxPoint x="150" y="510" />
            </Array>
          </mxGeometry>
        </mxCell>
        <mxCell id="_cyXRjGRUk6WVdYPU9he-47" value="" style="endArrow=classic;html=1;rounded=0;" parent="1" edge="1">
          <mxGeometry width="50" height="50" relative="1" as="geometry">
            <mxPoint x="170" y="410" as="sourcePoint" />
            <mxPoint x="170" y="448" as="targetPoint" />
          </mxGeometry>
        </mxCell>
        <mxCell id="_cyXRjGRUk6WVdYPU9he-48" value="&lt;span style=&quot;text-wrap-mode: nowrap;&quot;&gt;3.1.1: request to view personal dashboard&lt;/span&gt;" style="text;html=1;align=center;verticalAlign=middle;whiteSpace=wrap;rounded=0;" parent="1" vertex="1">
          <mxGeometry x="180" y="410" width="230" height="30" as="geometry" />
        </mxCell>
        <mxCell id="_cyXRjGRUk6WVdYPU9he-49" value="" style="endArrow=none;html=1;rounded=0;edgeStyle=orthogonalEdgeStyle;curved=1;exitX=0.25;exitY=1;exitDx=0;exitDy=0;entryX=0.25;entryY=0;entryDx=0;entryDy=0;" parent="1" source="_cyXRjGRUk6WVdYPU9he-5" target="_cyXRjGRUk6WVdYPU9he-44" edge="1">
          <mxGeometry width="50" height="50" relative="1" as="geometry">
            <mxPoint x="240" y="590" as="sourcePoint" />
            <mxPoint x="710" y="590" as="targetPoint" />
            <Array as="points">
              <mxPoint x="120" y="380" />
              <mxPoint x="120" y="380" />
            </Array>
          </mxGeometry>
        </mxCell>
        <mxCell id="_cyXRjGRUk6WVdYPU9he-51" value="" style="endArrow=classic;html=1;rounded=0;" parent="1" edge="1">
          <mxGeometry width="50" height="50" relative="1" as="geometry">
            <mxPoint x="100" y="448" as="sourcePoint" />
            <mxPoint x="100" y="410" as="targetPoint" />
          </mxGeometry>
        </mxCell>
        <mxCell id="_cyXRjGRUk6WVdYPU9he-52" value="&lt;span style=&quot;text-wrap-mode: nowrap;&quot;&gt;3.1.2: return personal dashboard page&lt;/span&gt;" style="text;html=1;align=center;verticalAlign=middle;whiteSpace=wrap;rounded=0;" parent="1" vertex="1">
          <mxGeometry x="-100" y="410" width="190" height="30" as="geometry" />
        </mxCell>
        <mxCell id="_cyXRjGRUk6WVdYPU9he-53" value="" style="endArrow=none;html=1;rounded=0;edgeStyle=orthogonalEdgeStyle;curved=1;exitX=0.75;exitY=0;exitDx=0;exitDy=0;entryX=1;entryY=0.25;entryDx=0;entryDy=0;" parent="1" source="_cyXRjGRUk6WVdYPU9he-44" target="_cyXRjGRUk6WVdYPU9he-44" edge="1">
          <mxGeometry width="50" height="50" relative="1" as="geometry">
            <mxPoint x="270" y="640" as="sourcePoint" />
            <mxPoint x="740" y="640" as="targetPoint" />
            <Array as="points">
              <mxPoint x="180" y="460" />
              <mxPoint x="270" y="460" />
              <mxPoint x="270" y="525" />
            </Array>
          </mxGeometry>
        </mxCell>
        <mxCell id="_cyXRjGRUk6WVdYPU9he-55" value="" style="endArrow=classic;html=1;rounded=0;" parent="1" edge="1">
          <mxGeometry width="50" height="50" relative="1" as="geometry">
            <mxPoint x="280" y="472" as="sourcePoint" />
            <mxPoint x="280" y="510" as="targetPoint" />
          </mxGeometry>
        </mxCell>
        <mxCell id="_cyXRjGRUk6WVdYPU9he-56" value="&lt;span style=&quot;text-wrap-mode: nowrap;&quot;&gt;3.1.3: bring personal&lt;/span&gt;&lt;div style=&quot;text-wrap-mode: nowrap;&quot;&gt;dashboard page&lt;/div&gt;" style="text;html=1;align=center;verticalAlign=middle;whiteSpace=wrap;rounded=0;" parent="1" vertex="1">
          <mxGeometry x="290" y="480" width="110" height="30" as="geometry" />
        </mxCell>
        <mxCell id="_cyXRjGRUk6WVdYPU9he-57" value="" style="endArrow=none;html=1;rounded=0;edgeStyle=orthogonalEdgeStyle;curved=1;exitX=0;exitY=0.25;exitDx=0;exitDy=0;entryX=0;entryY=0.75;entryDx=0;entryDy=0;" parent="1" source="_cyXRjGRUk6WVdYPU9he-44" target="_cyXRjGRUk6WVdYPU9he-5" edge="1">
          <mxGeometry width="50" height="50" relative="1" as="geometry">
            <mxPoint x="-370" y="390" as="sourcePoint" />
            <mxPoint x="100" y="390" as="targetPoint" />
            <Array as="points">
              <mxPoint x="-120" y="525" />
              <mxPoint x="-120" y="270" />
              <mxPoint x="90" y="270" />
            </Array>
          </mxGeometry>
        </mxCell>
        <mxCell id="_cyXRjGRUk6WVdYPU9he-58" value="" style="endArrow=classic;html=1;rounded=0;" parent="1" edge="1">
          <mxGeometry width="50" height="50" relative="1" as="geometry">
            <mxPoint x="-130" y="372" as="sourcePoint" />
            <mxPoint x="-130" y="410" as="targetPoint" />
          </mxGeometry>
        </mxCell>
        <mxCell id="_cyXRjGRUk6WVdYPU9he-59" value="&lt;span style=&quot;font-size: 11px; text-wrap-mode: nowrap; background-color: rgb(255, 255, 255);&quot;&gt;4.1.1: dispatch&lt;/span&gt;" style="text;html=1;align=center;verticalAlign=middle;whiteSpace=wrap;rounded=0;" parent="1" vertex="1">
          <mxGeometry x="-200" y="380" width="60" height="30" as="geometry" />
        </mxCell>
        <mxCell id="_cyXRjGRUk6WVdYPU9he-60" value="" style="endArrow=none;html=1;rounded=0;edgeStyle=orthogonalEdgeStyle;curved=1;exitX=0;exitY=0.5;exitDx=0;exitDy=0;entryX=0;entryY=0.5;entryDx=0;entryDy=0;" parent="1" source="_cyXRjGRUk6WVdYPU9he-44" target="_cyXRjGRUk6WVdYPU9he-5" edge="1">
          <mxGeometry width="50" height="50" relative="1" as="geometry">
            <mxPoint x="-20" y="510" as="sourcePoint" />
            <mxPoint x="-20" y="250" as="targetPoint" />
            <Array as="points">
              <mxPoint x="-230" y="540" />
              <mxPoint x="-230" y="250" />
            </Array>
          </mxGeometry>
        </mxCell>
        <mxCell id="_cyXRjGRUk6WVdYPU9he-61" value="" style="endArrow=classic;html=1;rounded=0;" parent="1" edge="1">
          <mxGeometry width="50" height="50" relative="1" as="geometry">
            <mxPoint x="-240" y="410" as="sourcePoint" />
            <mxPoint x="-240" y="372" as="targetPoint" />
          </mxGeometry>
        </mxCell>
        <mxCell id="_cyXRjGRUk6WVdYPU9he-62" value="&lt;span style=&quot;font-size: 11px; text-wrap-mode: nowrap; background-color: rgb(255, 255, 255);&quot;&gt;4.1.2: select item&lt;/span&gt;" style="text;html=1;align=center;verticalAlign=middle;whiteSpace=wrap;rounded=0;" parent="1" vertex="1">
          <mxGeometry x="-320" y="380" width="60" height="30" as="geometry" />
        </mxCell>
        <mxCell id="_cyXRjGRUk6WVdYPU9he-63" value="" style="endArrow=none;html=1;rounded=0;edgeStyle=orthogonalEdgeStyle;curved=1;exitX=0;exitY=0.75;exitDx=0;exitDy=0;entryX=0;entryY=0.25;entryDx=0;entryDy=0;" parent="1" source="_cyXRjGRUk6WVdYPU9he-44" target="_cyXRjGRUk6WVdYPU9he-5" edge="1">
          <mxGeometry width="50" height="50" relative="1" as="geometry">
            <mxPoint x="100" y="550" as="sourcePoint" />
            <mxPoint x="100" y="260" as="targetPoint" />
            <Array as="points">
              <mxPoint x="-340" y="555" />
              <mxPoint x="-340" y="235" />
            </Array>
          </mxGeometry>
        </mxCell>
        <mxCell id="_cyXRjGRUk6WVdYPU9he-64" value="" style="endArrow=classic;html=1;rounded=0;" parent="1" edge="1">
          <mxGeometry width="50" height="50" relative="1" as="geometry">
            <mxPoint x="-350" y="410" as="sourcePoint" />
            <mxPoint x="-350" y="372" as="targetPoint" />
          </mxGeometry>
        </mxCell>
        <mxCell id="_cyXRjGRUk6WVdYPU9he-65" value="&lt;span style=&quot;font-size: 11px; text-wrap-mode: nowrap; background-color: rgb(255, 255, 255);&quot;&gt;4.1.3: display item detalis&lt;/span&gt;" style="text;html=1;align=center;verticalAlign=middle;whiteSpace=wrap;rounded=0;" parent="1" vertex="1">
          <mxGeometry x="-470" y="380" width="110" height="30" as="geometry" />
        </mxCell>
        <mxCell id="_cyXRjGRUk6WVdYPU9he-66" value="" style="rounded=0;whiteSpace=wrap;html=1;" parent="1" vertex="1">
          <mxGeometry x="-230" y="10" width="120" height="60" as="geometry" />
        </mxCell>
        <mxCell id="_cyXRjGRUk6WVdYPU9he-67" value="System" style="text;html=1;align=center;verticalAlign=middle;whiteSpace=wrap;rounded=0;" parent="1" vertex="1">
          <mxGeometry x="-200" y="25" width="60" height="30" as="geometry" />
        </mxCell>
        <mxCell id="_cyXRjGRUk6WVdYPU9he-68" value="" style="endArrow=none;html=1;rounded=0;edgeStyle=orthogonalEdgeStyle;curved=1;exitX=1;exitY=0.5;exitDx=0;exitDy=0;entryX=0.5;entryY=0;entryDx=0;entryDy=0;" parent="1" source="_cyXRjGRUk6WVdYPU9he-66" target="_cyXRjGRUk6WVdYPU9he-5" edge="1">
          <mxGeometry width="50" height="50" relative="1" as="geometry">
            <mxPoint x="-330" y="200" as="sourcePoint" />
            <mxPoint x="140" y="200" as="targetPoint" />
            <Array as="points">
              <mxPoint x="150" y="40" />
            </Array>
          </mxGeometry>
        </mxCell>
        <mxCell id="_cyXRjGRUk6WVdYPU9he-69" value="" style="endArrow=classic;html=1;rounded=0;" parent="1" edge="1">
          <mxGeometry width="50" height="50" relative="1" as="geometry">
            <mxPoint x="120" y="93" as="sourcePoint" />
            <mxPoint x="91" y="64" as="targetPoint" />
          </mxGeometry>
        </mxCell>
        <mxCell id="_cyXRjGRUk6WVdYPU9he-70" value="&lt;span style=&quot;text-wrap-mode: nowrap;&quot;&gt;5.1.1: request to view group&lt;/span&gt;" style="text;html=1;align=center;verticalAlign=middle;whiteSpace=wrap;rounded=0;" parent="1" vertex="1">
          <mxGeometry x="120" y="60" width="130" height="25" as="geometry" />
        </mxCell>
        <mxCell id="_cyXRjGRUk6WVdYPU9he-71" value="" style="endArrow=none;html=1;rounded=0;edgeStyle=orthogonalEdgeStyle;curved=1;exitX=0.75;exitY=1;exitDx=0;exitDy=0;entryX=0.25;entryY=0;entryDx=0;entryDy=0;" parent="1" source="_cyXRjGRUk6WVdYPU9he-66" target="_cyXRjGRUk6WVdYPU9he-5" edge="1">
          <mxGeometry width="50" height="50" relative="1" as="geometry">
            <mxPoint x="-100" y="50" as="sourcePoint" />
            <mxPoint x="160" y="230" as="targetPoint" />
            <Array as="points">
              <mxPoint x="-140" y="140" />
              <mxPoint x="120" y="140" />
            </Array>
          </mxGeometry>
        </mxCell>
        <mxCell id="_cyXRjGRUk6WVdYPU9he-72" value="" style="endArrow=classic;html=1;rounded=0;" parent="1" edge="1">
          <mxGeometry width="50" height="50" relative="1" as="geometry">
            <mxPoint x="-60" y="150" as="sourcePoint" />
            <mxPoint x="-10" y="150" as="targetPoint" />
          </mxGeometry>
        </mxCell>
        <mxCell id="_cyXRjGRUk6WVdYPU9he-73" value="&lt;span style=&quot;text-wrap-mode: nowrap;&quot;&gt;5.1.3: return group deralis&lt;/span&gt;" style="text;html=1;align=center;verticalAlign=middle;whiteSpace=wrap;rounded=0;" parent="1" vertex="1">
          <mxGeometry x="-90" y="150" width="120" height="30" as="geometry" />
        </mxCell>
        <mxCell id="_cyXRjGRUk6WVdYPU9he-74" value="" style="endArrow=none;html=1;rounded=0;edgeStyle=orthogonalEdgeStyle;curved=1;exitX=0.75;exitY=0;exitDx=0;exitDy=0;entryX=1;entryY=0.25;entryDx=0;entryDy=0;" parent="1" source="_cyXRjGRUk6WVdYPU9he-66" target="_cyXRjGRUk6WVdYPU9he-66" edge="1">
          <mxGeometry width="50" height="50" relative="1" as="geometry">
            <mxPoint x="-130" y="-5" as="sourcePoint" />
            <mxPoint x="-100" y="10" as="targetPoint" />
            <Array as="points">
              <mxPoint x="-140" y="-50" />
              <mxPoint x="-60" y="-50" />
              <mxPoint x="-60" y="25" />
            </Array>
          </mxGeometry>
        </mxCell>
        <mxCell id="_cyXRjGRUk6WVdYPU9he-75" value="" style="endArrow=classic;html=1;rounded=0;" parent="1" edge="1">
          <mxGeometry width="50" height="50" relative="1" as="geometry">
            <mxPoint x="-51" y="-31" as="sourcePoint" />
            <mxPoint x="-80" y="-60" as="targetPoint" />
          </mxGeometry>
        </mxCell>
        <mxCell id="_cyXRjGRUk6WVdYPU9he-76" value="&lt;span style=&quot;text-wrap-mode: nowrap;&quot;&gt;5.1.2: bring group info&lt;/span&gt;" style="text;html=1;align=center;verticalAlign=middle;whiteSpace=wrap;rounded=0;" parent="1" vertex="1">
          <mxGeometry x="-60" y="-70" width="100" height="30" as="geometry" />
        </mxCell>
        <mxCell id="_cyXRjGRUk6WVdYPU9he-77" value="" style="endArrow=none;html=1;rounded=0;edgeStyle=orthogonalEdgeStyle;curved=1;exitX=0.5;exitY=1;exitDx=0;exitDy=0;entryX=0;entryY=0;entryDx=0;entryDy=0;" parent="1" source="_cyXRjGRUk6WVdYPU9he-66" target="_cyXRjGRUk6WVdYPU9he-5" edge="1">
          <mxGeometry width="50" height="50" relative="1" as="geometry">
            <mxPoint x="-100" y="50" as="sourcePoint" />
            <mxPoint x="160" y="230" as="targetPoint" />
            <Array as="points">
              <mxPoint x="-170" y="220" />
            </Array>
          </mxGeometry>
        </mxCell>
        <mxCell id="_cyXRjGRUk6WVdYPU9he-80" value="" style="endArrow=classic;html=1;rounded=0;" parent="1" edge="1">
          <mxGeometry width="50" height="50" relative="1" as="geometry">
            <mxPoint x="-140" y="169" as="sourcePoint" />
            <mxPoint x="-169" y="140" as="targetPoint" />
          </mxGeometry>
        </mxCell>
        <mxCell id="_cyXRjGRUk6WVdYPU9he-81" value="&lt;span style=&quot;font-size: 11px; text-wrap-mode: nowrap; background-color: rgb(255, 255, 255);&quot;&gt;6.1: View FAQ section&lt;/span&gt;" style="text;html=1;align=center;verticalAlign=middle;whiteSpace=wrap;rounded=0;" parent="1" vertex="1">
          <mxGeometry x="-270" y="150" width="110" height="30" as="geometry" />
        </mxCell>
      </root>
    </mxGraphModel>
  </diagram>
</mxfile>
